<svg xmlns="http://www.w3.org/2000/svg" width="64" height="64" viewBox="0 0 24 24" fill="none" stroke="#f43f5e" stroke-width="2" stroke-linecap="round" stroke-linejoin="round">
  <path d="M16 14c.5-3.33 1.5-6.67 3-10"></path>
  <path d="M5 21c1-5 2-10 5-13"></path>
  <path d="M5 21c0-3 2-4 5-4"></path>
  <path d="M5 21c0-3 6-3 8-6"></path>
  <path d="M19 4c-1.5 3.5-2 7-2 10"></path>
  <path d="M19 4c0 4-1 8-3 10"></path>
  <path d="M12 15c2-3 3-7 3-10"></path>
  <path d="M10 8c1-1 2-1 3 0"></path>
</svg>
